<svg width="227" height="67" viewBox="0 0 227 67" fill="none" xmlns="http://www.w3.org/2000/svg">
<path d="M126.085 64.5036C88.0549 61.2746 62.6183 61.7097 45.3358 62.0054C38.5336 62.1217 32.9946 62.2164 28.4481 62.0577C20.3392 61.7745 15.5364 60.6911 12.1388 57.7632C8.71364 54.8116 6.53247 49.8339 4.15056 41.1909C0.702659 28.6799 1.33991 20.4302 4.86763 14.9437C8.39457 9.4584 15.0016 6.43646 24.252 4.86027C33.4862 3.28685 45.1101 3.19301 58.3823 3.34995C60.7705 3.37819 63.2109 3.41451 65.6983 3.45152C77.0019 3.61972 89.2758 3.80235 102.031 3.30745C133.009 2.10546 155.934 1.50533 172.972 1.67019C190.029 1.83522 201.111 2.76752 208.443 4.59926C215.734 6.42054 219.173 9.09248 221.147 12.6597C222.157 14.4831 222.814 16.5955 223.364 19.0703C223.73 20.7179 224.039 22.479 224.376 24.3984C224.549 25.3826 224.729 26.4085 224.928 27.482C226.131 33.9782 224.865 39.8298 221.274 44.9035C217.665 50.0023 211.657 54.3829 203.27 57.7904C186.483 64.6102 160.438 67.4204 126.085 64.5036Z" stroke="#FFA8A8" stroke-width="2"/>
</svg>
