<svg width="25" height="25" viewBox="0 0 25 25" fill="none" xmlns="http://www.w3.org/2000/svg">
<g clip-path="url(#clip0_20_75)">
<path d="M10.2084 18.2292C9.8021 18.2292 9.87502 18.073 9.72919 17.6876L8.54169 13.7709L15.9167 9.16675L16.7813 9.39591L16.0625 11.3542L10.2084 18.2292Z" fill="#C8DAEA"/>
<path d="M10.2083 18.2292C10.5208 18.2292 10.6562 18.0833 10.8333 17.9167C11.1041 17.6563 14.5833 14.2708 14.5833 14.2708L12.4479 13.75L10.4687 15L10.2083 18.125V18.2292Z" fill="#5288AA"/>
<path d="M10.4167 15.0416L15.4583 18.7603C16.0312 19.0728 16.4479 18.9166 16.5937 18.2291L18.6458 8.56238C18.8542 7.71863 18.3229 7.34363 17.7708 7.59363L5.72916 12.2395C4.90625 12.5728 4.91666 13.0311 5.58333 13.2291L8.67708 14.1978L15.8333 9.68738C16.1667 9.47905 16.4792 9.59363 16.2292 9.8228L10.4167 15.0416Z" fill="url(#paint0_linear_20_75)"/>
</g>
<defs>
<linearGradient id="paint0_linear_20_75" x1="13.4366" y1="12.891" x2="16.0407" y2="17.0577" gradientUnits="userSpaceOnUse">
<stop stop-color="#30A0E6"/>
<stop offset="0.851" stop-color="#A5D6F4"/>
</linearGradient>
<clipPath id="clip0_20_75">
<rect width="25" height="25" fill="white"/>
</clipPath>
</defs>
</svg>
