<svg width="227" height="67" fill="none" xmlns="http://www.w3.org/2000/svg"><path d="M126.085 64.504c-38.03-3.23-63.467-2.794-80.75-2.499-6.801.117-12.34.211-16.887.053-8.109-.283-12.912-1.367-16.31-4.295-3.424-2.951-5.606-7.93-7.987-16.572C.703 28.68 1.34 20.43 4.868 14.944 8.395 9.458 15.002 6.436 24.252 4.86c9.234-1.573 20.858-1.667 34.13-1.51 2.389.028 4.829.065 7.316.102 11.304.168 23.578.35 36.333-.145 30.978-1.202 53.903-1.802 70.941-1.637 17.057.165 28.139 1.098 35.471 2.93 7.291 1.82 10.73 4.492 12.704 8.06 1.01 1.823 1.667 3.936 2.217 6.41.366 1.648.675 3.409 1.012 5.328.173.985.353 2.01.552 3.084 1.203 6.496-.063 12.348-3.654 17.422-3.609 5.098-9.617 9.479-18.004 12.886-16.787 6.82-42.832 9.63-77.185 6.714z" stroke="#FFA8A8" stroke-width="2"/></svg>