<svg width="272" height="28" fill="none" xmlns="http://www.w3.org/2000/svg"><path d="M0 26h126.903l-4.518-6.667-2.494-3.97-1.662-4.03v-2l.831-2L119.891 6l.832-1.333.831-.667.831-.667 1.663-.666L125.71 2H129.866l1.663.667 1.662.666 1.663 1.334.831 1.333.832-1.333.831-.667 1.662-.667 1.663-.666L143.167 2h2.493l2.494.667L149.817 4l1.662 2 .831 1.333.832 2v2l-.832 2L149.817 18l-.836 1.333L144.825 26H272" stroke="url(#paint0_linear_20_50)" stroke-width="3"/><defs><linearGradient id="paint0_linear_20_50" x1=".343" y1="26" x2="272.343" y2="26.029" gradientUnits="userSpaceOnUse"><stop offset=".076" stop-color="#FF8080" stop-opacity="0"/><stop offset=".284" stop-color="#FFA8A8" stop-opacity=".591"/><stop offset=".507" stop-color="#FFA8A8"/><stop offset=".732" stop-color="#FFA8A8" stop-opacity=".472"/><stop offset=".986" stop-color="#FFA8A8" stop-opacity="0"/></linearGradient></defs></svg>