<svg width="394" height="20" fill="none" xmlns="http://www.w3.org/2000/svg"><path d="M.5 19h296.405l-.935-1.5.312.5-2.181-3-1.4-2-.935-1.5-.934-2-.468-1.5V6.5l.468-1.5.467-1 .467-1 .468-.5.467-.5.935-.5.934-.5h2.337l.935.5.935.5.934 1 .468 1 .467-1 .467-.5.935-.5.935-.5 1.402-.5h1.402l1.402.5.934 1 .935 1.5.467 1 .468 1.5V8l-.468 1.5-.934 2-.468 1.5-.47 1-2.336 5H394" stroke="url(#paint0_linear_3_32)" stroke-width="1.5"/><defs><linearGradient id="paint0_linear_3_32" x1="19.5" y1="19" x2="390.5" y2="19.03" gradientUnits="userSpaceOnUse"><stop stop-color="#FF8080" stop-opacity="0"/><stop offset=".431" stop-color="#FFA8A8" stop-opacity=".591"/><stop offset=".752" stop-color="#FFA8A8"/><stop offset=".871" stop-color="#FFA8A8" stop-opacity=".472"/><stop offset=".986" stop-color="#FFA8A8" stop-opacity="0"/></linearGradient></defs></svg>