<svg width="25" height="25" fill="none" xmlns="http://www.w3.org/2000/svg"><g clip-path="url(#clip0_20_75)"><path d="M10.208 18.23c-.406 0-.333-.157-.479-.542L8.542 13.77l7.375-4.604.864.229-.718 1.958-5.855 6.875z" fill="#C8DAEA"/><path d="M10.208 18.23c.313 0 .448-.147.625-.313.271-.26 3.75-3.646 3.75-3.646l-2.135-.521-1.98 1.25-.26 3.125v.104z" fill="#5288AA"/><path d="M10.417 15.042l5.041 3.718c.573.313.99.157 1.136-.53l2.052-9.668c.208-.843-.323-1.218-.875-.968L5.729 12.239c-.823.334-.812.792-.146.99l3.094.969 7.156-4.51c.334-.209.646-.094.396.135l-5.812 5.219z" fill="url(#paint0_linear_20_75)"/></g><defs><linearGradient id="paint0_linear_20_75" x1="13.437" y1="12.891" x2="16.041" y2="17.058" gradientUnits="userSpaceOnUse"><stop stop-color="#30A0E6"/><stop offset=".851" stop-color="#A5D6F4"/></linearGradient><clipPath id="clip0_20_75"><path fill="#fff" d="M0 0h25v25H0z"/></clipPath></defs></svg>