<svg width="482" height="142" viewBox="0 0 482 142" fill="none" xmlns="http://www.w3.org/2000/svg">
<path d="M267.434 138.49C186.249 131.597 132.053 132.525 95.1343 133.157C80.563 133.407 68.6829 133.61 58.8969 133.268C41.5469 132.662 30.9293 130.349 23.351 123.819C15.7452 117.264 11.0175 106.311 5.93093 87.854C-1.46562 61.015 -0.196701 42.9919 7.6026 30.862C15.4011 18.7333 29.9196 12.1979 49.781 8.8137C69.6262 5.43225 94.5607 5.23579 122.903 5.57093C128.011 5.63134 133.23 5.70897 138.547 5.78808C162.695 6.14735 188.881 6.53694 216.097 5.48091C282.282 2.91286 331.283 1.62971 367.714 1.9822C404.164 2.33487 427.955 4.32547 443.76 8.2738C459.524 12.2117 467.199 18.0585 471.62 26.0465C473.853 30.0804 475.287 34.7147 476.471 40.0463C477.259 43.5904 477.927 47.3956 478.65 51.5136C479.018 53.6112 479.4 55.79 479.82 58.0568C482.444 72.2241 479.682 85.0395 471.824 96.1403C463.949 107.266 450.904 116.737 432.859 124.069C396.756 138.736 340.904 144.728 267.434 138.49Z" stroke="#FFA8A8" stroke-width="2"/>
</svg>
