<svg width="1016" height="36" viewBox="0 0 1016 36" fill="none" xmlns="http://www.w3.org/2000/svg">
<path d="M0.5 34.6325H686.072L684.326 31.8312L684.908 32.765L680.835 27.1625L678.222 23.4275L676.476 20.6262L674.731 16.8912L673.858 14.09V11.2887L674.731 8.48749L675.604 6.61999L676.476 4.75249L677.349 3.81874L678.222 2.88499L679.967 1.95124L681.713 1.01749H684.331H686.077L687.822 1.95124L689.568 2.88499L691.313 4.75249L692.186 6.61999L693.059 4.75249L693.931 3.81874L695.677 2.88499L697.423 1.95124L700.041 1.01749H702.659L705.277 1.95124L707.023 3.81874L708.768 6.61999L709.641 8.48749L710.514 11.2887V14.09L709.641 16.8912L707.896 20.6262L707.023 23.4275L706.145 25.295L701.782 34.6325H1016" stroke="url(#paint0_linear_32_207)" stroke-width="1.5"/>
<defs>
<linearGradient id="paint0_linear_32_207" x1="168.019" y1="34.6327" x2="860.861" y2="34.6883" gradientUnits="userSpaceOnUse">
<stop stop-color="#FF8080" stop-opacity="0"/>
<stop offset="0.431283" stop-color="#FFA8A8" stop-opacity="0.590891"/>
<stop offset="0.752005" stop-color="#FFA8A8"/>
<stop offset="0.870642" stop-color="#FFA8A8" stop-opacity="0.471698"/>
<stop offset="0.985962" stop-color="#FFA8A8" stop-opacity="0"/>
</linearGradient>
</defs>
</svg>
