<svg width="482" height="142" fill="none" xmlns="http://www.w3.org/2000/svg"><path d="M267.434 138.49c-81.185-6.893-135.381-5.965-172.3-5.333-14.571.25-26.451.453-36.237.111-17.35-.606-27.968-2.919-35.546-9.449-7.606-6.555-12.333-17.508-17.42-35.965-7.397-26.839-6.128-44.862 1.672-56.992C15.4 18.733 29.92 12.198 49.78 8.814c19.845-3.382 44.78-3.578 73.122-3.243 5.108.06 10.327.138 15.644.217 24.148.36 50.334.749 77.55-.307 66.185-2.568 115.186-3.851 151.617-3.499 36.45.353 60.241 2.343 76.046 6.292 15.764 3.938 23.439 9.784 27.86 17.773 2.233 4.033 3.667 8.668 4.851 14 .788 3.543 1.456 7.349 2.179 11.467.368 2.097.75 4.276 1.17 6.543 2.624 14.167-.138 26.983-7.996 38.083-7.875 11.126-20.92 20.597-38.965 27.929-36.103 14.667-91.955 20.659-165.425 14.421z" stroke="#FFA8A8" stroke-width="2"/></svg>