<svg width="973" height="50" fill="none" xmlns="http://www.w3.org/2000/svg"><path d="M0 48h437.242l-8.57-12.778-4.731-7.608-3.154-7.725v-3.833l1.577-3.834 1.577-2.555 1.577-2.556 1.577-1.278 1.577-1.277 3.154-1.278L434.979 2h7.885l3.154 1.278 3.154 1.278 3.154 2.555 1.577 2.556 1.577-2.556 1.577-1.278 3.154-1.277 3.154-1.278L468.095 2h4.731l4.731 1.278 3.154 2.555 3.154 3.834 1.577 2.555 1.577 3.834v3.833l-1.577 3.833-4.731 8.945-1.585 2.555L471.241 48H972.5" stroke="url(#paint0_linear_33_8)" stroke-width="3"/><defs><linearGradient id="paint0_linear_33_8" x1="-9" y1="48" x2="770.5" y2="48.083" gradientUnits="userSpaceOnUse"><stop offset=".016" stop-color="#FF8080" stop-opacity="0"/><stop offset=".125" stop-color="#FFA8A8" stop-opacity=".591"/><stop offset=".613" stop-color="#FFA8A8"/><stop offset=".812" stop-color="#FFA8A8" stop-opacity=".472"/><stop offset=".986" stop-color="#FFA8A8" stop-opacity="0"/></linearGradient></defs></svg>