<svg width="1016" height="36" fill="none" xmlns="http://www.w3.org/2000/svg"><path d="M.5 34.633h685.572l-1.746-2.802.582.934-4.073-5.602-2.613-3.736-1.746-2.8-1.745-3.736-.873-2.801v-2.801l.873-2.802.873-1.867.872-1.868.873-.933.873-.934 1.745-.934 1.746-.934h4.364l1.745.934 1.746.934 1.745 1.867.873 1.868.873-1.868.872-.933 1.746-.934 1.746-.934 2.618-.934h2.618l2.618.934 1.746 1.868 1.745 2.801.873 1.867.873 2.802v2.801l-.873 2.801-1.745 3.735-.873 2.801-.878 1.868-4.363 9.337H1016" stroke="url(#paint0_linear_32_207)" stroke-width="1.5"/><defs><linearGradient id="paint0_linear_32_207" x1="168.019" y1="34.633" x2="860.861" y2="34.688" gradientUnits="userSpaceOnUse"><stop stop-color="#FF8080" stop-opacity="0"/><stop offset=".431" stop-color="#FFA8A8" stop-opacity=".591"/><stop offset=".752" stop-color="#FFA8A8"/><stop offset=".871" stop-color="#FFA8A8" stop-opacity=".472"/><stop offset=".986" stop-color="#FFA8A8" stop-opacity="0"/></linearGradient></defs></svg>